<?xml version="1.0" encoding="UTF-8" standalone="no"?>
<!-- Created with Inkscape (http://www.inkscape.org/) -->

<svg
   xmlns:dc="http://purl.org/dc/elements/1.1/"
   xmlns:cc="http://creativecommons.org/ns#"
   xmlns:rdf="http://www.w3.org/1999/02/22-rdf-syntax-ns#"
   xmlns:svg="http://www.w3.org/2000/svg"
   xmlns="http://www.w3.org/2000/svg"
   xmlns:sodipodi="http://sodipodi.sourceforge.net/DTD/sodipodi-0.dtd"
   xmlns:inkscape="http://www.inkscape.org/namespaces/inkscape"
   width="3.9548554mm"
   height="4.0213003mm"
   viewBox="0 0 3.9548554 4.0213003"
   version="1.1"
   id="svg76"
   inkscape:version="0.92.2 (5c3e80d, 2017-08-06)"
   sodipodi:docname="bullet1.svg">
  <defs
     id="defs70" />
  <sodipodi:namedview
     id="base"
     pagecolor="#ffffff"
     bordercolor="#666666"
     borderopacity="1.0"
     inkscape:pageopacity="0.0"
     inkscape:pageshadow="2"
     inkscape:zoom="45.254834"
     inkscape:cx="11.908974"
     inkscape:cy="6.5770275"
     inkscape:document-units="mm"
     inkscape:current-layer="g23"
     showgrid="false"
     inkscape:window-width="1920"
     inkscape:window-height="1017"
     inkscape:window-x="-8"
     inkscape:window-y="-8"
     inkscape:window-maximized="1" />
  <metadata
     id="metadata73">
    <rdf:RDF>
      <cc:Work
         rdf:about="">
        <dc:format>image/svg+xml</dc:format>
        <dc:type
           rdf:resource="http://purl.org/dc/dcmitype/StillImage" />
        <dc:title />
      </cc:Work>
    </rdf:RDF>
  </metadata>
  <g
     inkscape:label="Layer 1"
     inkscape:groupmode="layer"
     id="layer1"
     transform="translate(-104.10082,-146.62968)">
    <g
       id="g23"
       transform="matrix(2.7918179e-4,0,0,2.7918179e-4,104.25951,146.6826)"
       style="fill:#462e62;fill-opacity:1;fill-rule:evenodd">
      <g
         transform="translate(-4429.6,-8277.8)"
         id="Default"
         style="fill:#462e62;fill-opacity:1;stroke:#462e62;stroke-width:0;stroke-miterlimit:4;stroke-dasharray:none;stroke-opacity:1">
        <desc
           id="desc3128">Master slide</desc>
      </g>
      <path
         d="m 5911.316,2850.458 a 1760,3040 0 1 1 -3520,0 1760,3040 0 1 1 3520,0 z"
         style="fill:#462e62;fill-opacity:1;fill-rule:nonzero;stroke:#462e62;stroke-width:0;stroke-miterlimit:4;stroke-dasharray:none;stroke-opacity:1"
         id="path3225"
         inkscape:connector-curvature="0" />
      <path
         d="m 10449.484,3005.758 a 1760,3040 0 1 1 -3520,0 1760,3040 0 1 1 3520,0 z"
         style="fill:#462e62;fill-opacity:1;fill-rule:nonzero;stroke:#462e62;stroke-width:0;stroke-miterlimit:4;stroke-dasharray:none;stroke-opacity:1"
         id="path3995"
         inkscape:connector-curvature="0" />
      <path
         d="M 2315.0422,6089.1332 A 2472.1358,1431.2361 79.899902 1 1 -503.06971,6591.1204 2472.1358,1431.2361 79.899902 1 1 2315.0422,6089.1332 Z"
         style="fill:#462e62;fill-opacity:1;fill-rule:nonzero;stroke:#462e62;stroke-width:0;stroke-miterlimit:4;stroke-dasharray:none;stroke-opacity:1"
         id="path3997"
         inkscape:connector-curvature="0" />
      <path
         d="m 10589.696,6012.9482 a 1492.9275,2578.6929 10.099618 1 0 2939.587,523.6 1492.9275,2578.6929 10.099618 1 0 -2939.587,-523.6 z"
         style="fill:#462e62;fill-opacity:1;fill-rule:nonzero;stroke:#462e62;stroke-width:0;stroke-miterlimit:4;stroke-dasharray:none;stroke-opacity:1"
         id="path3999"
         inkscape:connector-curvature="0" />
      <path
         d="m 6370.4,6612.2 c -743.85,0 -1494.5,251.73 -1684.8,825.53 -190.3,573.8 -340.68,1275.9 -827.19,1762.4 -486.51,486.5 -821.04,453.09 -1463.7,670.53 -642.65,217.44 -1324.3,1063.4 -1324.3,2091.5 0,1028.1 1211.6,2192.7 1806.8,2192.7 595.24,0 991.82,-30.958 1092.2,-272 100.34,-241.04 300.92,-441.62 548.34,-441.62 247.42,0 448,200.58 617.64,420.92 169.64,220.34 562.22,317.83 1021.8,317.83 459.58,0 986.65,-59.119 1193.6,-305.84 207,-246.72 282.02,-432.91 526.91,-432.91 244.9,0 448,200.58 665.49,516.38 217.49,315.8 708.39,258.86 1204.5,241.18 496.11,-17.677 1647.7,-1127 1647.7,-2086.6 0,-959.63 -354.46,-1702 -917.16,-1945.3 -562.69,-243.3 -1022.5,-93.332 -1545.8,-616.69 -523.36,-523.36 -558.81,-1678.9 -867.88,-2112.2 -309.06,-433.26 -950.3,-825.81 -1694.2,-825.81 z"
         style="fill:#462e62;fill-opacity:1;fill-rule:nonzero;stroke:#462e62;stroke-width:0;stroke-miterlimit:4;stroke-dasharray:none;stroke-opacity:1"
         id="path4007"
         inkscape:connector-curvature="0" />
    </g>
  </g>
</svg>
