<?xml version="1.0" encoding="UTF-8" standalone="no"?>
<!-- Created with Inkscape (http://www.inkscape.org/) -->

<svg
   xmlns:dc="http://purl.org/dc/elements/1.1/"
   xmlns:cc="http://creativecommons.org/ns#"
   xmlns:rdf="http://www.w3.org/1999/02/22-rdf-syntax-ns#"
   xmlns:svg="http://www.w3.org/2000/svg"
   xmlns="http://www.w3.org/2000/svg"
   xmlns:sodipodi="http://sodipodi.sourceforge.net/DTD/sodipodi-0.dtd"
   xmlns:inkscape="http://www.inkscape.org/namespaces/inkscape"
   id="svg3125"
   style="fill-rule:evenodd"
   version="1.1"
   viewBox="0 0 106.89561 669.3798"
   inkscape:version="0.92.2 (5c3e80d, 2017-08-06)"
   sodipodi:docname="paws3.svg"
   width="106.89561"
   height="669.37976">
  <defs
     id="defs14" />
  <sodipodi:namedview
     pagecolor="#ffffff"
     bordercolor="#666666"
     borderopacity="1"
     objecttolerance="10"
     gridtolerance="10"
     guidetolerance="10"
     inkscape:pageopacity="0"
     inkscape:pageshadow="2"
     inkscape:window-width="1920"
     inkscape:window-height="1017"
     id="namedview12"
     showgrid="false"
     inkscape:zoom="4.2503577"
     inkscape:cx="-22.233577"
     inkscape:cy="-11.23976"
     inkscape:window-x="-8"
     inkscape:window-y="-8"
     inkscape:window-maximized="1"
     inkscape:current-layer="svg3125" />
  <path
     inkscape:connector-curvature="0"
     id="path3225"
     style="fill:none;fill-opacity:1;fill-rule:nonzero;stroke:#462e62;stroke-width:2;stroke-miterlimit:4;stroke-dasharray:none;stroke-opacity:1"
     d="m 23.931874,14.031943 a 11.875014,6.875008 80.000022 1 1 -13.541124,2.38766 11.875014,6.875008 80.000022 1 1 13.541124,-2.38766 z" />
  <path
     inkscape:connector-curvature="0"
     id="path3995"
     style="fill:none;fill-opacity:1;fill-rule:nonzero;stroke:#462e62;stroke-width:2;stroke-miterlimit:4;stroke-dasharray:none;stroke-opacity:1"
     d="m 38.578535,12.065347 a 11.875014,6.875008 80.000022 1 1 -13.541123,2.38766 11.875014,6.875008 80.000022 1 1 13.541123,-2.38766 z" />
  <path
     inkscape:connector-curvature="0"
     id="path3997"
     style="fill:none;fill-opacity:1;fill-rule:nonzero;stroke:#462e62;stroke-width:2;stroke-miterlimit:4;stroke-dasharray:none;stroke-opacity:1"
     d="M 13.023243,28.801695 A 9.6567777,5.590766 69.899993 1 1 2.5227308,32.644338 9.6567777,5.590766 69.899993 1 1 13.023243,28.801695 Z" />
  <path
     inkscape:connector-curvature="0"
     id="path3999"
     style="fill:none;fill-opacity:1;fill-rule:nonzero;stroke:#462e62;stroke-width:2;stroke-miterlimit:4;stroke-dasharray:none;stroke-opacity:1"
     d="m 39.699454,23.795746 a 5.8317512,10.073025 0.09963988 1 0 11.663484,0.02028 5.8317512,10.073025 0.09963988 1 0 -11.663484,-0.02028 z" />
  <path
     inkscape:connector-curvature="0"
     id="path4007"
     style="fill:none;fill-opacity:1;fill-rule:nonzero;stroke:#462e62;stroke-width:2;stroke-miterlimit:4;stroke-dasharray:none;stroke-opacity:1"
     d="m 26.662694,27.719611 c -2.861524,0.504562 -5.578455,1.98212 -5.921306,4.31856 -0.342852,2.33644 -0.445107,5.13936 -1.986668,7.340888 -1.541561,2.201527 -2.85113,2.299918 -5.175893,3.572314 -2.324725,1.27239 -4.373146,4.989093 -3.6757729,8.944102 0.6973729,3.955008 6.1482519,7.613276 8.4379329,7.209544 2.289835,-0.403759 3.794443,-0.791856 4.017094,-1.787212 0.222499,-0.995321 0.858056,-1.90299 1.809859,-2.070819 0.951802,-0.167828 1.859471,0.46773 2.66152,1.200289 0.80205,0.732559 2.378398,0.841302 4.146361,0.529564 1.767963,-0.311739 3.755453,-0.896683 4.384217,-1.986173 0.628957,-1.08952 0.791257,-1.856664 1.733327,-2.022776 0.942108,-0.166118 1.859472,0.46773 2.910347,1.535058 1.050876,1.067328 2.900701,0.515301 4.797199,0.11077 1.8965,-0.40452 5.574095,-5.453123 4.923186,-9.144618 -0.650929,-3.69161 -2.518063,-6.307006 -4.847753,-6.861273 -2.329651,-0.554273 -3.996774,0.334535 -6.364862,-1.323815 -2.36832,-1.658318 -3.288511,-6.07953 -4.771388,-7.53675 -1.482812,-1.457073 -4.215876,-2.532216 -7.077592,-2.02762 z" />
  <metadata
     id="metadata9">
    <rdf:RDF>
      <cc:Work>
        <dc:format>image/svg+xml</dc:format>
        <dc:type
           rdf:resource="http://purl.org/dc/dcmitype/StillImage" />
        <cc:license
           rdf:resource="http://creativecommons.org/licenses/publicdomain/" />
        <dc:publisher>
          <cc:Agent
             rdf:about="http://openclipart.org/">
            <dc:title>Openclipart</dc:title>
          </cc:Agent>
        </dc:publisher>
        <dc:title />
        <dc:date>2012-06-03T13:19:57</dc:date>
        <dc:description>Ideal for creating cat-mouse peace treaty logos.</dc:description>
        <dc:source>https://openclipart.org/detail/170368/cat-or-cougar-footsteptrack-by-qubodup-170368</dc:source>
        <dc:creator>
          <cc:Agent>
            <dc:title>qubodup</dc:title>
          </cc:Agent>
        </dc:creator>
        <dc:subject>
          <rdf:Bag>
            <rdf:li>animal</rdf:li>
            <rdf:li>cat</rdf:li>
            <rdf:li>catus</rdf:li>
            <rdf:li>cougar</rdf:li>
            <rdf:li>feet</rdf:li>
            <rdf:li>felis</rdf:li>
            <rdf:li>foot</rdf:li>
            <rdf:li>footstep</rdf:li>
            <rdf:li>hunt</rdf:li>
            <rdf:li>katze</rdf:li>
            <rdf:li>paw</rdf:li>
            <rdf:li>pfote</rdf:li>
            <rdf:li>steps</rdf:li>
            <rdf:li>track</rdf:li>
            <rdf:li>tracks</rdf:li>
          </rdf:Bag>
        </dc:subject>
      </cc:Work>
      <cc:License
         rdf:about="http://creativecommons.org/licenses/publicdomain/">
        <cc:permits
           rdf:resource="http://creativecommons.org/ns#Reproduction" />
        <cc:permits
           rdf:resource="http://creativecommons.org/ns#Distribution" />
        <cc:permits
           rdf:resource="http://creativecommons.org/ns#DerivativeWorks" />
      </cc:License>
    </rdf:RDF>
  </metadata>
  <g
     style="fill:none;fill-opacity:1;fill-rule:evenodd;stroke:#462e62;stroke-width:511.99940721;stroke-miterlimit:4;stroke-dasharray:none;stroke-opacity:1"
     id="Default-4"
     transform="matrix(0.00384691,-6.783125e-4,6.783125e-4,0.00384691,-25.040527,228.1037)">
    <desc
       id="desc3128-0">Master slide</desc>
  </g>
  <path
     inkscape:connector-curvature="0"
     id="path3225-8"
     style="fill:none;fill-opacity:1;fill-rule:nonzero;stroke:#462e62;stroke-width:2;stroke-miterlimit:4;stroke-dasharray:none;stroke-opacity:1"
     d="m 23.875354,264.37075 a 11.875014,6.875008 80.000022 1 1 -13.541124,2.38766 11.875014,6.875008 80.000022 1 1 13.541124,-2.38766 z" />
  <path
     inkscape:connector-curvature="0"
     id="path3995-3"
     style="fill:none;fill-opacity:1;fill-rule:nonzero;stroke:#462e62;stroke-width:2;stroke-miterlimit:4;stroke-dasharray:none;stroke-opacity:1"
     d="m 38.522015,262.40416 a 11.875014,6.875008 80.000022 1 1 -13.541123,2.38766 11.875014,6.875008 80.000022 1 1 13.541123,-2.38766 z" />
  <path
     inkscape:connector-curvature="0"
     id="path3997-0"
     style="fill:none;fill-opacity:1;fill-rule:nonzero;stroke:#462e62;stroke-width:2;stroke-miterlimit:4;stroke-dasharray:none;stroke-opacity:1"
     d="M 12.966723,279.1405 A 9.6567777,5.590766 69.899993 1 1 2.4662108,282.98314 9.6567777,5.590766 69.899993 1 1 12.966723,279.1405 Z" />
  <path
     inkscape:connector-curvature="0"
     id="path3999-5"
     style="fill:none;fill-opacity:1;fill-rule:nonzero;stroke:#462e62;stroke-width:2;stroke-miterlimit:4;stroke-dasharray:none;stroke-opacity:1"
     d="m 39.642934,274.13455 a 5.8317512,10.073025 0.09963988 1 0 11.663484,0.0203 5.8317512,10.073025 0.09963988 1 0 -11.663484,-0.0203 z" />
  <path
     inkscape:connector-curvature="0"
     id="path4007-2"
     style="fill:none;fill-opacity:1;fill-rule:nonzero;stroke:#462e62;stroke-width:2;stroke-miterlimit:4;stroke-dasharray:none;stroke-opacity:1"
     d="m 26.606174,278.05842 c -2.861524,0.50456 -5.578455,1.98212 -5.921306,4.31856 -0.342852,2.33644 -0.445107,5.13936 -1.986668,7.34088 -1.541561,2.20153 -2.85113,2.29992 -5.175893,3.57232 -2.324725,1.27239 -4.373146,4.98909 -3.6757729,8.9441 0.6973729,3.95501 6.1482519,7.61328 8.4379329,7.20954 2.289835,-0.40375 3.794443,-0.79185 4.017094,-1.78721 0.222499,-0.99532 0.858056,-1.90299 1.809859,-2.07082 0.951802,-0.16782 1.859471,0.46773 2.66152,1.20029 0.80205,0.73256 2.378398,0.84131 4.146361,0.52957 1.767963,-0.31174 3.755453,-0.89669 4.384217,-1.98618 0.628957,-1.08952 0.791257,-1.85666 1.733327,-2.02277 0.942108,-0.16612 1.859472,0.46773 2.910347,1.53506 1.050876,1.06732 2.900701,0.5153 4.797199,0.11077 1.8965,-0.40452 5.574095,-5.45313 4.923186,-9.14462 -0.650929,-3.69161 -2.518063,-6.30701 -4.847753,-6.86128 -2.329651,-0.55427 -3.996774,0.33454 -6.364862,-1.32381 -2.36832,-1.65832 -3.288511,-6.07953 -4.771388,-7.53675 -1.482812,-1.45707 -4.215876,-2.53222 -7.077592,-2.02762 z" />
  <g
     style="fill:none;fill-opacity:1;fill-rule:evenodd;stroke:#462e62;stroke-width:511.99940721;stroke-miterlimit:4;stroke-dasharray:none;stroke-opacity:1"
     id="Default-4-1"
     transform="matrix(0.00384691,-6.783125e-4,6.783125e-4,0.00384691,-22.942747,467.1424)">
    <desc
       id="desc3128-0-3">Master slide</desc>
  </g>
  <path
     inkscape:connector-curvature="0"
     id="path3225-8-0"
     style="fill:none;fill-opacity:1;fill-rule:nonzero;stroke:#462e62;stroke-width:2;stroke-miterlimit:4;stroke-dasharray:none;stroke-opacity:1"
     d="m 25.973134,503.40945 a 11.875014,6.875008 80.000022 1 1 -13.541123,2.38766 11.875014,6.875008 80.000022 1 1 13.541123,-2.38766 z" />
  <path
     inkscape:connector-curvature="0"
     id="path3995-3-0"
     style="fill:none;fill-opacity:1;fill-rule:nonzero;stroke:#462e62;stroke-width:2;stroke-miterlimit:4;stroke-dasharray:none;stroke-opacity:1"
     d="m 40.619795,501.44286 a 11.875014,6.875008 80.000022 1 1 -13.541123,2.38766 11.875014,6.875008 80.000022 1 1 13.541123,-2.38766 z" />
  <path
     inkscape:connector-curvature="0"
     id="path3997-0-4"
     style="fill:none;fill-opacity:1;fill-rule:nonzero;stroke:#462e62;stroke-width:2;stroke-miterlimit:4;stroke-dasharray:none;stroke-opacity:1"
     d="M 15.064503,518.1792 A 9.6567777,5.590766 69.899993 1 1 4.5639908,522.02184 9.6567777,5.590766 69.899993 1 1 15.064503,518.1792 Z" />
  <path
     inkscape:connector-curvature="0"
     id="path3999-5-9"
     style="fill:none;fill-opacity:1;fill-rule:nonzero;stroke:#462e62;stroke-width:2;stroke-miterlimit:4;stroke-dasharray:none;stroke-opacity:1"
     d="m 41.740714,513.17325 a 5.8317512,10.073025 0.09963988 1 0 11.663484,0.0203 5.8317512,10.073025 0.09963988 1 0 -11.663484,-0.0203 z" />
  <path
     inkscape:connector-curvature="0"
     id="path4007-2-5"
     style="fill:none;fill-opacity:1;fill-rule:nonzero;stroke:#462e62;stroke-width:2;stroke-miterlimit:4;stroke-dasharray:none;stroke-opacity:1"
     d="m 28.703954,517.09712 c -2.861524,0.50456 -5.578455,1.98212 -5.921306,4.31856 -0.342852,2.33644 -0.445107,5.13936 -1.986668,7.34088 -1.541561,2.20153 -2.85113,2.29992 -5.175893,3.57232 -2.324725,1.27239 -4.373146,4.98909 -3.675773,8.9441 0.697374,3.95501 6.148252,7.61328 8.437933,7.20954 2.289835,-0.40375 3.794443,-0.79185 4.017094,-1.78721 0.222499,-0.99532 0.858056,-1.90299 1.809859,-2.07082 0.951802,-0.16782 1.859471,0.46773 2.66152,1.20029 0.80205,0.73256 2.378398,0.84131 4.146361,0.52957 1.767963,-0.31174 3.755453,-0.89669 4.384217,-1.98618 0.628957,-1.08952 0.791257,-1.85666 1.733327,-2.02277 0.942108,-0.16612 1.859472,0.46773 2.910347,1.53506 1.050876,1.06732 2.900701,0.5153 4.797199,0.11077 1.8965,-0.40452 5.574095,-5.45313 4.923186,-9.14462 -0.650929,-3.69161 -2.518063,-6.30701 -4.847753,-6.86128 -2.329651,-0.55427 -3.996774,0.33454 -6.364862,-1.32381 -2.36832,-1.65832 -3.288511,-6.07953 -4.771388,-7.53675 -1.482812,-1.45707 -4.215876,-2.53222 -7.077592,-2.02762 z" />
  <g
     style="fill:none;fill-opacity:1;fill-rule:evenodd;stroke:#462e62;stroke-width:511.99940721;stroke-miterlimit:4;stroke-dasharray:none;stroke-opacity:1"
     id="Default-4-1-7"
     transform="matrix(0.00384691,6.783125e-4,-6.783125e-4,0.00384691,48.396974,571.7764)">
    <desc
       id="desc3128-0-3-5">Master slide</desc>
  </g>
  <path
     inkscape:connector-curvature="0"
     id="path3225-8-0-7"
     style="fill:none;fill-opacity:1;fill-rule:nonzero;stroke:#462e62;stroke-width:2;stroke-miterlimit:4;stroke-dasharray:none;stroke-opacity:1"
     d="m 77.958844,622.58647 a 6.8750084,11.875015 9.999978 1 1 -13.541124,-2.38766 6.8750084,11.875015 9.999978 1 1 13.541124,2.38766 z" />
  <path
     inkscape:connector-curvature="0"
     id="path3995-3-0-9"
     style="fill:none;fill-opacity:1;fill-rule:nonzero;stroke:#462e62;stroke-width:2;stroke-miterlimit:4;stroke-dasharray:none;stroke-opacity:1"
     d="m 92.394822,625.74791 a 6.8750084,11.875015 9.999978 1 1 -13.541124,-2.38766 6.8750084,11.875015 9.999978 1 1 13.541124,2.38766 z" />
  <path
     inkscape:connector-curvature="0"
     id="path3997-0-4-0"
     style="fill:none;fill-opacity:1;fill-rule:nonzero;stroke:#462e62;stroke-width:2;stroke-miterlimit:4;stroke-dasharray:none;stroke-opacity:1"
     d="m 62.656616,632.73452 a 9.656788,5.590772 89.899879 1 1 -11.181527,0.0195 9.656788,5.590772 89.899879 1 1 11.181527,-0.0195 z" />
  <path
     inkscape:connector-curvature="0"
     id="path3999-5-9-7"
     style="fill:none;fill-opacity:1;fill-rule:nonzero;stroke:#462e62;stroke-width:2;stroke-miterlimit:4;stroke-dasharray:none;stroke-opacity:1"
     d="m 89.436166,637.15427 a 5.8317487,10.073021 20.099564 1 0 10.953154,4.00819 5.8317487,10.073021 20.099564 1 0 -10.953154,-4.00819 z" />
  <path
     inkscape:connector-curvature="0"
     id="path4007-2-5-0"
     style="fill:none;fill-opacity:1;fill-rule:nonzero;stroke:#462e62;stroke-width:2;stroke-miterlimit:4;stroke-dasharray:none;stroke-opacity:1"
     d="m 75.843529,636.38266 c -2.861524,-0.50456 -5.919959,-0.0454 -7.041242,2.03292 -1.121282,2.07827 -2.176024,4.67718 -4.377583,6.2187 -2.201559,1.54152 -3.465804,1.18607 -6.085551,1.58662 -2.619709,0.40056 -5.815781,3.19252 -6.513154,7.14753 -0.697373,3.955 3.173581,9.25696 5.463261,9.66069 2.289835,0.40376 3.836442,0.55367 4.386097,-0.30551 0.549499,-0.85919 1.457168,-1.49475 2.408971,-1.32692 0.951802,0.16782 1.587359,1.07549 2.09049,2.03819 0.50313,0.9627 1.947221,1.60403 3.715184,1.91576 1.767963,0.31174 3.835655,0.44184 4.799127,-0.3669 0.963664,-0.8087 1.378554,-1.47407 2.320624,-1.30796 0.942108,0.16612 1.58736,1.0755 2.209813,2.43788 0.622453,1.36238 2.549525,1.47632 4.470008,1.74483 1.920481,0.26851 7.103011,-3.21782 7.75392,-6.90931 0.650929,-3.69161 -0.209088,-6.78788 -2.208711,-8.10552 -1.999584,-1.31763 -3.870157,-1.05261 -5.528245,-3.42088 -1.658317,-2.36832 -1.010872,-6.83763 -1.905924,-8.71414 -0.89504,-1.87635 -3.095561,-3.82142 -5.957278,-4.32601 z" />
  <g
     style="fill:none;fill-opacity:1;fill-rule:evenodd;stroke:#462e62;stroke-width:511.99940721;stroke-miterlimit:4;stroke-dasharray:none;stroke-opacity:1"
     id="Default-4-1-7-0"
     transform="matrix(0.00384691,6.783125e-4,-6.783125e-4,0.00384691,39.052004,337.6693)">
    <desc
       id="desc3128-0-3-5-4">Master slide</desc>
  </g>
  <path
     inkscape:connector-curvature="0"
     id="path3225-8-0-7-7"
     style="fill:none;fill-opacity:1;fill-rule:nonzero;stroke:#462e62;stroke-width:2;stroke-miterlimit:4;stroke-dasharray:none;stroke-opacity:1"
     d="m 72.613874,388.47937 a 6.8750084,11.875015 9.999978 1 1 -13.541124,-2.38766 6.8750084,11.875015 9.999978 1 1 13.541124,2.38766 z" />
  <path
     inkscape:connector-curvature="0"
     id="path3995-3-0-9-7"
     style="fill:none;fill-opacity:1;fill-rule:nonzero;stroke:#462e62;stroke-width:2;stroke-miterlimit:4;stroke-dasharray:none;stroke-opacity:1"
     d="m 87.049852,391.64081 a 6.8750084,11.875015 9.999978 1 1 -13.541124,-2.38766 6.8750084,11.875015 9.999978 1 1 13.541124,2.38766 z" />
  <path
     inkscape:connector-curvature="0"
     id="path3997-0-4-0-7"
     style="fill:none;fill-opacity:1;fill-rule:nonzero;stroke:#462e62;stroke-width:2;stroke-miterlimit:4;stroke-dasharray:none;stroke-opacity:1"
     d="m 57.311646,398.62742 a 9.656788,5.590772 89.899879 1 1 -11.181527,0.0195 9.656788,5.590772 89.899879 1 1 11.181527,-0.0195 z" />
  <path
     inkscape:connector-curvature="0"
     id="path3999-5-9-7-9"
     style="fill:none;fill-opacity:1;fill-rule:nonzero;stroke:#462e62;stroke-width:2;stroke-miterlimit:4;stroke-dasharray:none;stroke-opacity:1"
     d="m 84.091196,403.04717 a 5.8317463,10.073017 20.099564 1 0 10.953149,4.00819 5.8317463,10.073017 20.099564 1 0 -10.953149,-4.00819 z" />
  <path
     inkscape:connector-curvature="0"
     id="path4007-2-5-0-4"
     style="fill:none;fill-opacity:1;fill-rule:nonzero;stroke:#462e62;stroke-width:2;stroke-miterlimit:4;stroke-dasharray:none;stroke-opacity:1"
     d="m 70.498559,402.27556 c -2.861524,-0.50456 -5.919959,-0.0454 -7.041242,2.03292 -1.121282,2.07827 -2.176024,4.67718 -4.377583,6.2187 -2.201559,1.54152 -3.465804,1.18607 -6.085551,1.58662 -2.619709,0.40056 -5.815781,3.19252 -6.513154,7.14753 -0.697373,3.955 3.173581,9.25696 5.463261,9.66069 2.289835,0.40376 3.836442,0.55367 4.386097,-0.30551 0.549499,-0.85919 1.457168,-1.49475 2.408971,-1.32692 0.951802,0.16782 1.587359,1.07549 2.09049,2.03819 0.50313,0.9627 1.947221,1.60403 3.715184,1.91576 1.767963,0.31174 3.835655,0.44184 4.799127,-0.3669 0.963664,-0.8087 1.378554,-1.47407 2.320624,-1.30796 0.942108,0.16612 1.58736,1.0755 2.209813,2.43788 0.622453,1.36238 2.549525,1.47632 4.470008,1.74483 1.920481,0.26851 7.103011,-3.21782 7.75392,-6.90931 0.650929,-3.69161 -0.209088,-6.78788 -2.208711,-8.10552 -1.999584,-1.31763 -3.870157,-1.05261 -5.528245,-3.42088 -1.658317,-2.36832 -1.010872,-6.83763 -1.905924,-8.71414 -0.89504,-1.87635 -3.095561,-3.82142 -5.957278,-4.32601 z" />
  <g
     style="fill:none;fill-opacity:1;fill-rule:evenodd;stroke:#462e62;stroke-width:511.99940721;stroke-miterlimit:4;stroke-dasharray:none;stroke-opacity:1"
     id="Default-4-1-7-2"
     transform="matrix(0.00384691,6.783125e-4,-6.783125e-4,0.00384691,46.110234,84.514093)">
    <desc
       id="desc3128-0-3-5-6">Master slide</desc>
  </g>
  <path
     inkscape:connector-curvature="0"
     id="path3225-8-0-7-3"
     style="fill:none;fill-opacity:1;fill-rule:nonzero;stroke:#462e62;stroke-width:2;stroke-miterlimit:4;stroke-dasharray:none;stroke-opacity:1"
     d="M 77.672104,135.32416 A 6.8750084,11.875015 9.999978 1 1 64.13098,132.9365 6.8750084,11.875015 9.999978 1 1 77.672104,135.32416 Z" />
  <path
     inkscape:connector-curvature="0"
     id="path3995-3-0-9-6"
     style="fill:none;fill-opacity:1;fill-rule:nonzero;stroke:#462e62;stroke-width:2;stroke-miterlimit:4;stroke-dasharray:none;stroke-opacity:1"
     d="m 92.108082,138.48561 a 6.8750084,11.875015 9.999978 1 1 -13.541124,-2.38766 6.8750084,11.875015 9.999978 1 1 13.541124,2.38766 z" />
  <path
     inkscape:connector-curvature="0"
     id="path3997-0-4-0-8"
     style="fill:none;fill-opacity:1;fill-rule:nonzero;stroke:#462e62;stroke-width:2;stroke-miterlimit:4;stroke-dasharray:none;stroke-opacity:1"
     d="m 62.369876,145.47222 a 9.656788,5.590772 89.899879 1 1 -11.181527,0.0195 9.656788,5.590772 89.899879 1 1 11.181527,-0.0195 z" />
  <path
     inkscape:connector-curvature="0"
     id="path3999-5-9-7-6"
     style="fill:none;fill-opacity:1;fill-rule:nonzero;stroke:#462e62;stroke-width:2;stroke-miterlimit:4;stroke-dasharray:none;stroke-opacity:1"
     d="m 89.149426,149.89197 a 5.8317487,10.073021 20.099564 1 0 10.953154,4.00819 5.8317487,10.073021 20.099564 1 0 -10.953154,-4.00819 z" />
  <path
     inkscape:connector-curvature="0"
     id="path4007-2-5-0-40"
     style="fill:none;fill-opacity:1;fill-rule:nonzero;stroke:#462e62;stroke-width:2;stroke-miterlimit:4;stroke-dasharray:none;stroke-opacity:1"
     d="m 75.556789,149.12036 c -2.861524,-0.50456 -5.919959,-0.0454 -7.041242,2.03292 -1.121282,2.07827 -2.176024,4.67718 -4.377583,6.2187 -2.201559,1.54152 -3.465804,1.18607 -6.085551,1.58662 -2.619709,0.40056 -5.815781,3.19252 -6.513154,7.14753 -0.697373,3.955 3.173581,9.25696 5.463261,9.66069 2.289835,0.40376 3.836442,0.55367 4.386097,-0.30551 0.549499,-0.85919 1.457168,-1.49475 2.408971,-1.32692 0.951802,0.16782 1.587359,1.07549 2.09049,2.03819 0.50313,0.9627 1.947221,1.60403 3.715184,1.91576 1.767963,0.31174 3.835655,0.44184 4.799127,-0.3669 0.963664,-0.8087 1.378554,-1.47407 2.320624,-1.30796 0.942108,0.16612 1.58736,1.0755 2.209813,2.43788 0.622453,1.36238 2.549525,1.47632 4.470008,1.74483 1.920481,0.26851 7.103011,-3.21782 7.75392,-6.90931 0.650929,-3.69161 -0.209088,-6.78788 -2.208711,-8.10552 -1.999584,-1.31763 -3.870157,-1.05261 -5.528245,-3.42088 -1.658317,-2.36832 -1.010872,-6.83763 -1.905924,-8.71414 -0.89504,-1.87635 -3.095561,-3.82142 -5.957278,-4.32601 z" />
</svg>
